<svg xmlns="http://www.w3.org/2000/svg" viewBox="0 0 64 72"><defs><linearGradient id="f" x1="0" y1="0" x2="0" y2="1"><stop offset="0" stop-color="#c8323f"/><stop offset="1" stop-color="#7a1424"/></linearGradient><linearGradient id="g" x1="0" y1="0" x2="1" y2="1"><stop offset="0" stop-color="#ffe08a"/><stop offset=".55" stop-color="#f2c14e"/><stop offset="1" stop-color="#b8862a"/></linearGradient></defs><path d="M32 3 L59 11 V33 C59 51 47 63 32 69 C17 63 5 51 5 33 V11 Z" fill="url(#f)" stroke="url(#g)" stroke-width="3.2" stroke-linejoin="round"/><path d="M18 24 L21 13 L27 19 L32 10 L37 19 L43 13 L46 24 Z" fill="url(#g)"/><rect x="20" y="29" width="24" height="24" rx="5" fill="#fff7e2"/><g fill="#7a1424"><circle cx="26.5" cy="35.5" r="2.3"/><circle cx="37.5" cy="35.5" r="2.3"/><circle cx="32" cy="41" r="2.3"/><circle cx="26.5" cy="46.5" r="2.3"/><circle cx="37.5" cy="46.5" r="2.3"/></g></svg>
